<svg width="173" height="173" viewBox="0 0 173 173" fill="none" xmlns="http://www.w3.org/2000/svg">
<path d="M86.5 173C38.6708 173 0 134.329 0 86.5C0 38.6708 38.6708 0 86.5 0C134.329 0 173 38.6708 173 86.5C173 134.329 134.333 173 86.5 173Z" fill="#34934C"/>
<path d="M86.5002 153.195C49.6228 153.195 19.8047 123.38 19.8047 86.4997C19.8047 49.6194 49.6198 19.8042 86.5002 19.8042C123.38 19.8042 153.196 49.6223 153.196 86.4997C153.196 123.377 123.38 153.195 86.5002 153.195Z" fill="#34934C"/>
<path d="M86.4993 165.599C42.7624 165.599 7.40039 130.237 7.40039 86.4998C7.40039 42.7629 42.7624 7.40088 86.4993 7.40088C130.236 7.40088 165.598 42.7629 165.598 86.4998C165.598 130.237 130.24 165.599 86.4993 165.599Z" fill="white"/>
<path d="M86.4986 158.198C46.8541 158.198 14.8008 126.145 14.8008 86.5001C14.8008 46.8555 46.8541 14.8022 86.4986 14.8022C126.143 14.8022 158.197 46.8555 158.197 86.5001C158.197 126.145 126.146 158.198 86.4986 158.198Z" fill="#34934C"/>
<path d="M42.6885 124.677V118.352H44.1568C44.677 118.352 45.0634 118.473 45.319 118.717C45.5746 118.961 45.7024 119.291 45.7024 119.713V121.365C45.7024 121.788 45.5746 122.12 45.322 122.361C45.0693 122.605 44.68 122.727 44.1539 122.727H43.3662V124.674H42.6855L42.6885 124.677ZM45.0218 119.713C45.0218 119.472 44.9475 119.282 44.8018 119.145C44.6562 119.005 44.4392 118.937 44.1539 118.937H43.3662V122.147H44.1539C44.4452 122.147 44.6621 122.079 44.8048 121.939C44.9475 121.799 45.0188 121.609 45.0188 121.368V119.716L45.0218 119.713Z" fill="white"/>
<path d="M47.2598 124.676V118.351H48.7281C49.2482 118.351 49.6346 118.473 49.8902 118.717C50.1459 118.96 50.2737 119.29 50.2737 119.712V121.074C50.2737 121.392 50.2023 121.659 50.0597 121.876C49.917 122.093 49.703 122.248 49.4177 122.337L50.6155 124.673H49.8665L48.7281 122.435H47.9404V124.673H47.2598V124.676ZM49.596 119.712C49.596 119.472 49.5217 119.281 49.376 119.145C49.2304 119.005 49.0134 118.937 48.7281 118.937H47.9404V121.855H48.7281C49.0194 121.855 49.2363 121.787 49.379 121.647C49.5217 121.508 49.593 121.317 49.593 121.08V119.718L49.596 119.712Z" fill="white"/>
<path d="M55.1383 123.461C55.1383 123.883 55.0045 124.216 54.734 124.459C54.4635 124.703 54.0504 124.825 53.4946 124.825C52.9387 124.825 52.5197 124.703 52.2432 124.459C51.9668 124.216 51.8301 123.883 51.8301 123.461V119.57C51.8301 119.148 51.9638 118.815 52.2343 118.574C52.5018 118.33 52.9179 118.208 53.4738 118.208C54.0296 118.208 54.4487 118.33 54.7251 118.574C55.0015 118.818 55.1383 119.151 55.1383 119.57V123.461ZM54.4576 119.567C54.4576 119.32 54.3773 119.13 54.2139 118.993C54.0504 118.856 53.8037 118.788 53.4738 118.788C53.1438 118.788 52.909 118.856 52.7485 118.993C52.588 119.13 52.5107 119.32 52.5107 119.567V123.458C52.5107 123.698 52.591 123.889 52.7545 124.028C52.915 124.168 53.1617 124.236 53.4946 124.236C53.8275 124.236 54.0593 124.168 54.2198 124.031C54.3773 123.894 54.4576 123.704 54.4576 123.458V119.567Z" fill="white"/>
<path d="M56.9385 124.677V118.352H58.4068C58.927 118.352 59.3134 118.473 59.569 118.717C59.8246 118.961 59.9524 119.291 59.9524 119.713V121.365C59.9524 121.788 59.8246 122.12 59.572 122.361C59.3193 122.605 58.93 122.727 58.4039 122.727H57.6162V124.674H56.9355L56.9385 124.677ZM59.2718 119.713C59.2718 119.472 59.1975 119.282 59.0518 119.145C58.9062 119.005 58.6892 118.937 58.4039 118.937H57.6162V122.147H58.4039C58.6952 122.147 58.9121 122.079 59.0548 121.939C59.1975 121.799 59.2688 121.609 59.2688 121.368V119.716L59.2718 119.713Z" fill="white"/>
<path d="M61.5117 124.676V118.351H64.2849V118.934H62.1924V121.172H63.8955V121.757H62.1924V124.091H64.383V124.676H61.5117Z" fill="white"/>
<path d="M65.8398 124.676V118.351H67.3082C67.8283 118.351 68.2147 118.473 68.4703 118.717C68.7259 118.96 68.8537 119.29 68.8537 119.712V121.074C68.8537 121.392 68.7824 121.659 68.6397 121.876C68.4971 122.093 68.2831 122.248 67.9977 122.337L69.1956 124.673H68.4465L67.3082 122.435H66.5205V124.673H65.8398V124.676ZM68.1761 119.712C68.1761 119.472 68.1018 119.281 67.9561 119.145C67.8105 119.005 67.5935 118.937 67.3082 118.937H66.5205V121.855H67.3082C67.5994 121.855 67.8164 121.787 67.9591 121.647C68.1018 121.508 68.1731 121.317 68.1731 121.08V119.718L68.1761 119.712Z" fill="white"/>
<path d="M73.089 118.937H71.8228V124.676H71.1421V118.937H69.8789V118.351H73.089V118.937Z" fill="white"/>
<path d="M75.2281 124.676V122.408L73.623 118.351H74.3423L75.5699 121.612L76.7945 118.351H77.5138L75.9087 122.417V124.676H75.2281Z" fill="white"/>
<path d="M80.9688 124.677V118.352H81.9229L83.1088 122.623L84.2858 118.352H85.2399V124.677H84.5593V119.442L83.4209 123.508H82.7878L81.6494 119.442V124.677H80.9688Z" fill="white"/>
<path d="M89.0527 118.352L90.4824 124.674H89.8017L89.4718 123.214H87.6141L87.2842 124.674H86.6035L88.0332 118.352H89.0557H89.0527ZM87.7389 122.632H89.3351L88.5385 119.109L87.7419 122.632H87.7389Z" fill="white"/>
<path d="M91.8438 124.676V118.351H92.4947L94.6377 123.217V118.351H95.3184V124.676H94.6645L92.5244 119.81V124.676H91.8438Z" fill="white"/>
<path d="M99.1328 118.351L100.562 124.673H99.8818L99.5519 123.214H97.6942L97.3643 124.673H96.6836L98.1133 118.351H99.1357H99.1328ZM97.819 122.631H99.4151L98.6186 119.109L97.822 122.631H97.819Z" fill="white"/>
<path d="M103.216 121.466H104.987V124.676H104.696L104.444 124.052C104.313 124.272 104.137 124.456 103.917 124.602C103.697 124.748 103.454 124.822 103.186 124.822C102.835 124.822 102.556 124.762 102.351 124.641C102.143 124.522 101.997 124.358 101.908 124.15C101.822 123.942 101.777 123.713 101.777 123.461V119.57C101.777 119.148 101.908 118.815 102.167 118.574C102.425 118.33 102.827 118.208 103.373 118.208C103.92 118.208 104.325 118.33 104.589 118.574C104.857 118.818 104.987 119.151 104.987 119.57V120.105H104.307V119.57C104.307 119.323 104.229 119.133 104.078 118.996C103.926 118.859 103.692 118.791 103.373 118.791C103.055 118.791 102.833 118.859 102.684 118.996C102.535 119.133 102.461 119.323 102.461 119.57V123.461C102.461 123.68 102.509 123.865 102.601 124.016C102.693 124.168 102.889 124.239 103.18 124.239C103.382 124.239 103.567 124.186 103.736 124.079C103.906 123.972 104.042 123.841 104.149 123.689C104.256 123.538 104.31 123.395 104.31 123.267V122.052H103.219V121.469L103.216 121.466Z" fill="white"/>
<path d="M106.789 124.676V118.351H109.562V118.934H107.47V121.172H109.173V121.757H107.47V124.091H109.657V124.676H106.789Z" fill="white"/>
<path d="M111.115 124.676V118.351H112.069L113.255 122.622L114.432 118.351H115.386V124.676H114.706V119.442L113.567 123.508H112.934L111.796 119.442V124.676H111.115Z" fill="white"/>
<path d="M117.334 124.677V118.352H120.104V118.934H118.015V121.172H119.718V121.758H118.015V124.091H120.202V124.677H117.334Z" fill="white"/>
<path d="M121.664 124.676V118.351H122.315L124.455 123.217V118.351H125.139V124.676H124.485L122.345 119.81V124.676H121.664Z" fill="white"/>
<path d="M129.61 118.937H128.347V124.676H127.664V118.937H126.4V118.351H129.61V118.937Z" fill="white"/>
<path fill-rule="evenodd" clip-rule="evenodd" d="M114.399 101.123V111.28H112.03V89.2877H114.399V99.1112H121.081V89.2877H123.438V111.28H121.081V101.123H114.399ZM105.946 107.053C105.946 110.21 104.052 111.782 100.242 111.782C96.4314 111.782 94.5262 110.21 94.5262 107.053V104.173H96.8951V107.175C96.8951 107.995 97.1686 108.625 97.7274 109.092C98.298 109.532 99.1333 109.761 100.239 109.761C101.345 109.761 102.18 109.535 102.742 109.092C102.872 108.973 102.991 108.854 103.11 108.724C103.217 108.581 103.3 108.438 103.372 108.272C103.455 108.117 103.503 107.951 103.538 107.784C103.574 107.606 103.586 107.437 103.574 107.258C103.574 106.462 103.491 105.84 103.312 105.401C103.146 104.925 102.813 104.423 102.287 103.911L96.3452 98.0887C95.6557 97.3991 95.1682 96.7184 94.8948 96.0527C94.8234 95.8505 94.764 95.6484 94.7164 95.4463C94.6689 95.2323 94.6332 95.0183 94.5975 94.8162C94.5737 94.6022 94.547 94.3882 94.5381 94.1742C94.5262 93.9601 94.5143 93.7462 94.5262 93.5321C94.5262 92.0222 94.9928 90.8541 95.9083 90.0427C96.8476 89.2104 98.2653 88.8032 100.171 88.8032C103.803 88.8032 105.613 90.3726 105.613 93.5292V96.3885H103.244V93.3895C103.244 92.578 102.982 91.9479 102.435 91.508C101.924 91.0414 101.137 90.8184 100.078 90.8184C99.0203 90.8184 98.2089 91.0443 97.6739 91.508C97.1596 91.9479 96.9011 92.5661 96.9011 93.3657C96.8892 93.5203 96.8892 93.6748 96.9011 93.8294C96.913 93.9869 96.9248 94.1385 96.9367 94.296C96.9605 94.4625 96.9872 94.617 97.0199 94.7597C97.0556 94.9143 97.0913 95.0688 97.1388 95.2234C97.2934 95.6781 97.6382 96.1507 98.1881 96.6263L104.237 102.449C104.379 102.604 104.522 102.758 104.641 102.925C104.772 103.091 104.891 103.258 105.009 103.436C105.116 103.614 105.226 103.793 105.319 103.971C105.414 104.161 105.509 104.351 105.592 104.542C105.83 105.198 105.949 106.031 105.949 107.053M90.1212 109.244V111.28H80.1432V89.2877H89.7883V91.3237H82.5121V99.1112H88.4419V101.123H82.5121V109.244H90.1212ZM71.8654 98.7545V94.0255C71.8654 93.1695 71.6038 92.5126 71.0926 92.0371C70.5694 91.5615 69.8204 91.3237 68.8544 91.3237H66.1169V101.468H68.8544C70.8667 101.468 71.8683 100.565 71.8683 98.7545M66.114 103.492V111.28H63.745V89.2877H68.8663C70.6289 89.2877 71.9516 89.7038 72.8551 90.539C73.7736 91.3832 74.2373 92.5394 74.2373 94.0285V98.7575C74.2373 101.067 73.2475 102.532 71.259 103.162L75.4262 111.283H72.8195L68.8663 103.495H66.1169L66.114 103.492ZM52.0877 101.123V111.28H49.7188V89.2877H59.0191V91.3237H52.0877V99.1112H57.6607V101.123H52.0877Z" fill="white"/>
<path fill-rule="evenodd" clip-rule="evenodd" d="M85.549 52.491V64.0889C85.549 64.3861 85.6679 64.6596 85.87 64.8765C86.084 65.0787 86.3693 65.1975 86.6547 65.1975C86.94 65.1975 87.2372 65.0787 87.4394 64.8765C87.6534 64.6625 87.7723 64.3891 87.7723 64.0889V52.491C87.7723 52.1937 87.6534 51.9084 87.4394 51.7063C87.2372 51.4923 86.9519 51.3734 86.6547 51.3734C86.3574 51.3734 86.084 51.4923 85.87 51.7063C85.6679 51.9084 85.549 52.1937 85.549 52.491ZM66.7937 57.6479C66.6749 57.7311 66.5797 57.8381 66.4965 57.957C66.4252 58.0878 66.3657 58.2186 66.342 58.3612C66.3182 58.5039 66.3182 58.6585 66.3538 58.8012C66.3776 58.9438 66.4371 59.0746 66.5203 59.1935L73.1634 68.6959C73.3298 68.9337 73.5914 69.1002 73.8767 69.1596C74.174 69.2072 74.4712 69.1477 74.7209 68.9813C74.9587 68.803 75.1251 68.5414 75.1727 68.2561C75.2202 67.9588 75.1608 67.6616 74.9824 67.4208L68.3364 57.9184C68.2531 57.7995 68.158 57.6925 68.0273 57.6211C67.9084 57.5379 67.7657 57.4904 67.623 57.4547C67.4804 57.4309 67.3377 57.4428 67.195 57.4666C67.0523 57.5023 66.9216 57.5617 66.7908 57.6449M104.967 57.9214L98.3358 67.4238C98.1575 67.6616 98.098 67.9618 98.1456 68.259C98.1931 68.5443 98.3596 68.8059 98.5974 68.9842C98.847 69.1507 99.1443 69.2102 99.4326 69.1626C99.7298 69.1032 99.9914 68.9367 100.158 68.6989L106.789 59.1965C106.967 58.9587 107.027 58.6615 106.979 58.3612C106.932 58.0759 106.765 57.8144 106.516 57.6479C106.278 57.4815 105.981 57.4101 105.692 57.4577C105.395 57.5171 105.145 57.6836 104.964 57.9214M54.8718 72.0219C54.8124 72.1646 54.7767 72.2954 54.7648 72.45C54.7648 72.5926 54.7886 72.7353 54.8481 72.878C54.8956 73.0088 54.9788 73.1395 55.074 73.2465C55.181 73.3535 55.2999 73.4368 55.4306 73.4962L66.0269 78.2103C66.0626 78.2222 66.0982 78.2341 66.1339 78.246C66.1696 78.2578 66.2052 78.2697 66.2409 78.2816C66.2885 78.2935 66.3241 78.2935 66.3598 78.3054H66.4787C66.7284 78.3054 66.978 78.2222 67.1802 78.0557C67.3704 77.9012 67.513 77.6753 67.5606 77.4256C67.62 77.1759 67.5844 76.9144 67.4655 76.6885C67.3466 76.4626 67.1564 76.2842 66.9305 76.1772L56.3342 71.4632C56.1915 71.4037 56.0608 71.368 55.9032 71.368C55.7606 71.368 55.6179 71.3918 55.4752 71.4394C55.3445 71.4988 55.2256 71.5702 55.1186 71.6772C55.0116 71.7723 54.9283 71.8912 54.8689 72.0219M116.984 71.4602L106.388 76.1742C106.114 76.2931 105.9 76.519 105.79 76.7925C105.683 77.0659 105.695 77.3751 105.814 77.6515C105.933 77.9249 106.159 78.139 106.432 78.2341C106.706 78.3411 107.015 78.3292 107.291 78.2103L117.888 73.4962C118.161 73.3773 118.375 73.1514 118.482 72.878C118.589 72.6045 118.577 72.2954 118.458 72.0219C118.339 71.7485 118.114 71.5345 117.84 71.4394C117.567 71.3324 117.255 71.3443 116.981 71.4632M102.732 85.3557C102.72 85.2368 102.72 85.0941 102.708 84.9396C102.684 84.6661 102.672 84.4046 102.637 84.1311C102.613 83.8695 102.577 83.5961 102.542 83.3345C102.506 83.0611 102.47 82.7995 102.423 82.538C102.375 82.2764 102.328 82.0029 102.268 81.7384C102.197 81.3817 102.114 81.0369 102.03 80.6803C101.935 80.3355 101.828 79.9907 101.721 79.6429C101.602 79.2981 101.483 78.9534 101.353 78.6205C101.222 78.2757 101.091 77.9398 100.937 77.6069C100.77 77.2383 100.58 76.8698 100.378 76.4982C100.188 76.1416 99.9735 75.7849 99.7358 75.449C99.5099 75.1042 99.2602 74.7713 99.0075 74.4503C98.746 74.1293 98.4725 73.8202 98.1872 73.523C95.5299 70.7617 91.8294 69.3677 87.1837 69.3677C82.0862 69.3677 78.0498 70.8568 75.1697 73.8083C74.8962 74.1055 74.6228 74.4147 74.3583 74.7357C74.0967 75.0567 73.847 75.3777 73.6182 75.7254C73.3804 76.0583 73.1664 76.4031 72.9642 76.7598C72.7502 77.1165 72.5719 77.485 72.3936 77.8566C72.239 78.1776 72.0963 78.5105 71.9656 78.8345C71.8348 79.1674 71.704 79.5003 71.597 79.8331C71.4781 80.1779 71.3711 80.5138 71.276 80.8586C71.1809 81.2034 71.0976 81.5482 71.0144 81.8959C70.955 82.1456 70.9074 82.4072 70.8598 82.6568C70.8123 82.9184 70.7648 83.1681 70.7291 83.4326C70.6934 83.6942 70.6577 83.9438 70.6221 84.2054C70.5983 84.467 70.5745 84.7285 70.5507 84.9901C70.5388 85.1209 70.5388 85.2517 70.527 85.3587H102.738L102.732 85.3557ZM41.4311 86.9518C41.2171 86.9518 41.015 86.8686 40.8604 86.714C40.7177 86.5714 40.6345 86.3692 40.6345 86.1552C40.6345 85.9412 40.7177 85.751 40.8604 85.5964C41.015 85.4419 41.2171 85.3587 41.4311 85.3587H49.9913V59.3778L41.978 63.973C41.6094 64.187 41.1814 64.2345 40.7742 64.1275C40.37 64.0205 40.0252 63.759 39.8112 63.3904C39.5972 63.0218 39.5496 62.5938 39.6566 62.1866C39.7636 61.7705 40.0252 61.4257 40.3938 61.2206L85.9532 35.0465C86.0721 34.9752 86.2029 34.9276 86.3337 34.892C86.4644 34.8563 86.6071 34.8325 86.7379 34.8325C86.8806 34.8325 87.0232 34.8563 87.154 34.892C87.2848 34.9276 87.4156 34.9752 87.5345 35.0465L132.544 61.1374C132.913 61.3514 133.189 61.6962 133.308 62.1004C133.415 62.5165 133.367 62.9564 133.153 63.325C132.939 63.6936 132.583 63.9551 132.164 64.0621C131.759 64.1691 131.319 64.1097 130.951 63.8838L123.484 59.5502L123.27 85.3527H131.831C132.045 85.3527 132.247 85.436 132.389 85.5905C132.544 85.7451 132.627 85.9353 132.627 86.1493C132.627 86.3633 132.544 86.5654 132.389 86.7081C132.247 86.8626 132.045 86.9459 131.831 86.9459H41.4281L41.4311 86.9518Z" fill="white"/>
<path d="M103.422 86.1076C103.315 86.1076 103.217 86.0838 103.125 86.0481C103.018 86.0125 102.935 85.953 102.861 85.8817C102.789 85.7984 102.73 85.7152 102.682 85.6201C102.647 85.525 102.623 85.418 102.623 85.311C102.623 81.1082 100.958 77.0599 97.9801 74.0816C94.9929 71.1034 90.9536 69.424 86.7388 69.424C82.5241 69.424 78.4877 71.1034 75.5095 74.0816C72.5223 77.0569 70.8549 81.1082 70.8549 85.311C70.8549 85.525 70.7716 85.7271 70.6171 85.8817C70.4744 86.0243 70.2723 86.1076 70.0583 86.1076C69.8443 86.1076 69.6422 86.0243 69.4995 85.8817C69.3449 85.7271 69.2617 85.525 69.2617 85.311C69.2617 80.6801 71.1075 76.2365 74.383 72.964C77.6585 69.6767 82.111 67.8428 86.7418 67.8428C91.3727 67.8428 95.8281 69.6767 99.1006 72.964C102.376 76.2395 104.222 80.6801 104.222 85.311C104.222 85.418 104.198 85.525 104.162 85.6201C104.115 85.7152 104.067 85.7984 103.984 85.8817C103.913 85.953 103.83 86.0125 103.734 86.0481C103.627 86.0838 103.532 86.1076 103.425 86.1076" fill="white"/>
<path d="M70.0537 86.3334H50.6208C50.4068 86.3334 50.2166 86.2502 50.062 86.0927C49.9074 85.95 49.8242 85.7479 49.8242 85.5339C49.8242 85.3199 49.9074 85.1178 50.062 84.9751C50.2166 84.8205 50.4068 84.7373 50.6208 84.7373H70.0537C70.2677 84.7373 70.4698 84.8205 70.6125 84.9751C70.7671 85.1178 70.8503 85.3199 70.8503 85.5339C70.8503 85.7479 70.7671 85.95 70.6125 86.0927C70.4698 86.2472 70.2677 86.3334 70.0537 86.3334Z" fill="white"/>
<path d="M122.748 86.381H122.736L103.338 86.3334C103.136 86.3334 102.934 86.2502 102.777 86.0927C102.634 85.95 102.551 85.7479 102.551 85.5339C102.551 85.3199 102.634 85.1178 102.777 84.9751C102.931 84.8205 103.136 84.7373 103.347 84.7373L122.745 84.7849C122.959 84.7849 123.149 84.8681 123.303 85.0227C123.446 85.1772 123.529 85.3793 123.529 85.5814C123.529 85.7955 123.446 85.9976 123.303 86.1432C123.149 86.2978 122.947 86.381 122.745 86.381" fill="white"/>
<path d="M50.5036 86.3333H50.4917C50.3966 86.3333 50.2896 86.3095 50.1945 86.2738C50.0994 86.2263 50.0162 86.1787 49.9329 86.0955C49.8616 86.0241 49.8021 85.9409 49.7665 85.8458C49.7189 85.7388 49.707 85.6437 49.707 85.5367L49.7308 57.6862C49.7308 57.4722 49.8259 57.2701 49.9686 57.1274C50.1232 56.9729 50.3253 56.8896 50.5274 56.8896C50.7414 56.8896 50.9435 56.9729 51.0862 57.1274C51.2407 57.2701 51.324 57.4722 51.324 57.6862L51.2883 85.5367C51.2883 85.6437 51.2764 85.7507 51.2288 85.8458C51.1932 85.9409 51.1337 86.0241 51.0624 86.0955C50.9792 86.1787 50.8959 86.2263 50.8008 86.2738C50.7057 86.3095 50.5987 86.3333 50.5036 86.3333Z" fill="white"/>
<path d="M122.805 86.3337C122.698 86.3337 122.603 86.3099 122.496 86.2742C122.401 86.2267 122.318 86.1791 122.244 86.0959C122.175 86.0245 122.113 85.9413 122.065 85.8462C122.03 85.7392 122.006 85.6441 122.006 85.5371V57.6242C122.006 57.4102 122.089 57.2081 122.244 57.0654C122.389 56.9109 122.591 56.8276 122.805 56.8276C123.019 56.8276 123.222 56.9109 123.367 57.0654C123.519 57.2081 123.605 57.4102 123.605 57.6242V85.5371C123.605 85.6441 123.581 85.7392 123.546 85.8462C123.498 85.9413 123.439 86.0245 123.367 86.0959C123.296 86.1791 123.21 86.2267 123.115 86.2742C123.008 86.3099 122.912 86.3337 122.805 86.3337Z" fill="white"/>
<path d="M131.834 115.197H41.4313C41.2173 115.197 41.0152 115.114 40.8606 114.972C40.718 114.82 40.6348 114.615 40.6348 114.413C40.6348 114.199 40.718 113.997 40.8606 113.842C41.0152 113.699 41.2173 113.616 41.4313 113.616H131.834C132.048 113.616 132.25 113.699 132.393 113.842C132.547 113.997 132.63 114.199 132.63 114.413C132.63 114.627 132.547 114.82 132.393 114.972C132.25 115.117 132.048 115.197 131.834 115.197Z" fill="white"/>
</svg>
