<svg width="179" height="180" viewBox="0 0 179 180" fill="none" xmlns="http://www.w3.org/2000/svg">
<path d="M89.5 179.5C40.0119 179.5 0 139.488 0 90C0 40.512 40.0119 0.5 89.5 0.5C138.988 0.5 179 40.512 179 90C179 139.488 138.992 179.5 89.5 179.5Z" fill="#34934C"/>
<path d="M89.4998 159.009C51.3435 159.009 20.4912 128.159 20.4912 89.9999C20.4912 51.8405 51.3404 20.9913 89.4998 20.9913C127.659 20.9913 158.508 51.8436 158.508 89.9999C158.508 128.156 127.659 159.009 89.4998 159.009Z" fill="#34934C"/>
<path d="M89.4996 171.842C44.2458 171.842 7.65732 135.254 7.65732 89.9999C7.65732 44.7462 44.2458 8.15769 89.4996 8.15769C134.753 8.15769 171.342 44.7462 171.342 89.9999C171.342 135.254 134.757 171.842 89.4996 171.842Z" fill="white"/>
<path d="M89.5001 164.184C48.4806 164.184 15.3156 131.02 15.3156 90C15.3156 48.9805 48.4806 15.8155 89.5001 15.8155C130.52 15.8155 163.685 48.9805 163.685 90C163.685 131.02 130.523 164.184 89.5001 164.184Z" fill="#34934C"/>
<path d="M44.1691 129.5V122.956H45.6883C46.2265 122.956 46.6263 123.082 46.8908 123.334C47.1553 123.586 47.2875 123.928 47.2875 124.364V126.074C47.2875 126.511 47.1553 126.855 46.8939 127.105C46.6325 127.357 46.2296 127.483 45.6853 127.483H44.8703V129.497H44.166L44.1691 129.5ZM46.5833 124.364C46.5833 124.115 46.5064 123.918 46.3557 123.777C46.205 123.632 45.9805 123.562 45.6853 123.562H44.8703V126.883H45.6853C45.9866 126.883 46.2111 126.812 46.3588 126.668C46.5064 126.523 46.5802 126.326 46.5802 126.077V124.367L46.5833 124.364Z" fill="white"/>
<path d="M48.8986 129.5V122.956H50.4178C50.956 122.956 51.3558 123.082 51.6203 123.334C51.8848 123.586 52.017 123.928 52.017 124.364V125.773C52.017 126.102 51.9432 126.379 51.7956 126.603C51.648 126.828 51.4265 126.988 51.1313 127.08L52.3707 129.497H51.5957L50.4178 127.181H49.6028V129.497H48.8986V129.5ZM51.3158 124.364C51.3158 124.115 51.2389 123.918 51.0882 123.777C50.9375 123.632 50.713 123.562 50.4178 123.562H49.6028V126.582H50.4178C50.7192 126.582 50.9437 126.511 51.0913 126.366C51.2389 126.222 51.3127 126.025 51.3127 125.779V124.37L51.3158 124.364Z" fill="white"/>
<path d="M57.0508 128.242C57.0508 128.679 56.9124 129.024 56.6326 129.276C56.3527 129.528 55.9252 129.654 55.3501 129.654C54.775 129.654 54.3414 129.528 54.0554 129.276C53.7694 129.024 53.6279 128.679 53.6279 128.242V124.217C53.6279 123.78 53.7663 123.436 54.0462 123.186C54.323 122.934 54.7535 122.808 55.3286 122.808C55.9037 122.808 56.3373 122.934 56.6234 123.186C56.9094 123.439 57.0508 123.783 57.0508 124.217V128.242ZM56.3466 124.214C56.3466 123.958 56.2635 123.762 56.0944 123.62C55.9252 123.479 55.67 123.408 55.3286 123.408C54.9872 123.408 54.7443 123.479 54.5782 123.62C54.4121 123.762 54.3322 123.958 54.3322 124.214V128.239C54.3322 128.488 54.4152 128.685 54.5844 128.83C54.7504 128.974 55.0057 129.045 55.3501 129.045C55.6946 129.045 55.9345 128.974 56.1005 128.833C56.2635 128.691 56.3466 128.495 56.3466 128.239V124.214Z" fill="white"/>
<path d="M58.9142 129.5V122.956H60.4335C60.9716 122.956 61.3714 123.082 61.6359 123.334C61.9004 123.586 62.0327 123.928 62.0327 124.364V126.074C62.0327 126.511 61.9004 126.855 61.639 127.105C61.3776 127.357 60.9747 127.483 60.4304 127.483H59.6154V129.497H58.9111L58.9142 129.5ZM61.3284 124.364C61.3284 124.115 61.2515 123.918 61.1008 123.777C60.9501 123.632 60.7256 123.562 60.4304 123.562H59.6154V126.883H60.4304C60.7318 126.883 60.9563 126.812 61.1039 126.668C61.2515 126.523 61.3253 126.326 61.3253 126.077V124.367L61.3284 124.364Z" fill="white"/>
<path d="M63.6454 129.5V122.956H66.5148V123.559H64.3497V125.874H66.1119V126.48H64.3497V128.894H66.6163V129.5H63.6454Z" fill="white"/>
<path d="M68.1232 129.5V122.956H69.6424C70.1806 122.956 70.5804 123.082 70.8449 123.334C71.1094 123.586 71.2416 123.928 71.2416 124.364V125.773C71.2416 126.102 71.1678 126.379 71.0202 126.603C70.8726 126.828 70.6512 126.988 70.3559 127.08L71.5953 129.497H70.8203L69.6424 127.181H68.8275V129.497H68.1232V129.5ZM70.5404 124.364C70.5404 124.115 70.4636 123.918 70.3129 123.777C70.1622 123.632 69.9377 123.562 69.6424 123.562H68.8275V126.582H69.6424C69.9438 126.582 70.1683 126.511 70.316 126.366C70.4636 126.222 70.5374 126.025 70.5374 125.779V124.37L70.5404 124.364Z" fill="white"/>
<path d="M75.6243 123.562H74.3142V129.5H73.61V123.562H72.3029V122.956H75.6243V123.562Z" fill="white"/>
<path d="M77.8376 129.5V127.154L76.1769 122.956H76.9211L78.1913 126.329L79.4583 122.956H80.2026L78.5419 127.163V129.5H77.8376Z" fill="white"/>
<path d="M83.7764 129.5V122.956H84.7636L85.9906 127.375L87.2085 122.956H88.1957V129.5H87.4914V124.084L86.3136 128.292H85.6585L84.4806 124.084V129.5H83.7764Z" fill="white"/>
<path d="M92.1415 122.956L93.6208 129.497H92.9165L92.5752 127.987H90.6531L90.3117 129.497H89.6074L91.0867 122.956H92.1446H92.1415ZM90.7822 127.384H92.4337L91.6095 123.74L90.7853 127.384H90.7822Z" fill="white"/>
<path d="M95.0295 129.5V122.956H95.703L97.9203 127.99V122.956H98.6246V129.5H97.948L95.7337 124.466V129.5H95.0295Z" fill="white"/>
<path d="M102.57 122.956L104.049 129.497H103.345L103.004 127.987H101.082L100.74 129.497H100.036L101.515 122.956H102.573H102.57ZM101.211 127.384H102.862L102.038 123.74L101.214 127.384H101.211Z" fill="white"/>
<path d="M106.796 126.179H108.629V129.5H108.327L108.066 128.854C107.931 129.082 107.749 129.273 107.522 129.423C107.294 129.574 107.042 129.651 106.765 129.651C106.402 129.651 106.113 129.589 105.901 129.463C105.686 129.34 105.535 129.171 105.443 128.956C105.354 128.741 105.307 128.504 105.307 128.242V124.217C105.307 123.78 105.443 123.436 105.71 123.187C105.978 122.934 106.393 122.808 106.959 122.808C107.525 122.808 107.943 122.934 108.217 123.187C108.494 123.439 108.629 123.783 108.629 124.217V124.77H107.925V124.217C107.925 123.962 107.845 123.765 107.688 123.623C107.531 123.482 107.288 123.411 106.959 123.411C106.63 123.411 106.399 123.482 106.245 123.623C106.092 123.765 106.015 123.962 106.015 124.217V128.242C106.015 128.47 106.064 128.661 106.159 128.818C106.255 128.974 106.458 129.048 106.759 129.048C106.968 129.048 107.159 128.993 107.334 128.882C107.509 128.771 107.651 128.636 107.762 128.479C107.872 128.322 107.928 128.175 107.928 128.043V126.785H106.799V126.182L106.796 126.179Z" fill="white"/>
<path d="M110.493 129.5V122.956H113.362V123.559H111.197V125.874H112.96V126.48H111.197V128.894H113.461V129.5H110.493Z" fill="white"/>
<path d="M114.969 129.5V122.956H115.956L117.183 127.375L118.401 122.956H119.388V129.5H118.684V124.084L117.506 128.292H116.851L115.673 124.084V129.5H114.969Z" fill="white"/>
<path d="M121.404 129.5V122.956H124.271V123.559H122.109V125.874H123.871V126.48H122.109V128.894H124.372V129.5H121.404Z" fill="white"/>
<path d="M125.883 129.5V122.956H126.556L128.771 127.99V122.956H129.478V129.5H128.801L126.587 124.466V129.5H125.883Z" fill="white"/>
<path d="M134.106 123.562H132.798V129.5H132.091V123.562H130.784V122.956H134.106V123.562Z" fill="white"/>
<path fill-rule="evenodd" clip-rule="evenodd" d="M118.366 105.131V115.64H115.915V92.8847H118.366V103.049H125.279V92.8847H127.718V115.64H125.279V105.131H118.366ZM109.619 111.266C109.619 114.532 107.66 116.159 103.718 116.159C99.775 116.159 97.8037 114.532 97.8037 111.266V108.286H100.255V111.392C100.255 112.241 100.538 112.893 101.116 113.376C101.706 113.831 102.571 114.068 103.715 114.068C104.859 114.068 105.723 113.834 106.304 113.376C106.439 113.253 106.562 113.13 106.685 112.995C106.796 112.847 106.882 112.699 106.956 112.527C107.042 112.367 107.091 112.195 107.128 112.023C107.165 111.838 107.177 111.663 107.165 111.479C107.165 110.654 107.079 110.012 106.895 109.556C106.722 109.064 106.378 108.545 105.834 108.016L99.6858 101.991C98.9724 101.277 98.468 100.573 98.1851 99.8843C98.1112 99.6752 98.0497 99.4661 98.0005 99.257C97.9513 99.0355 97.9144 98.8141 97.8775 98.605C97.8529 98.3836 97.8252 98.1621 97.816 97.9407C97.8037 97.7193 97.7914 97.4978 97.8037 97.2764C97.8037 95.7141 98.2865 94.5055 99.2337 93.6659C100.206 92.8048 101.673 92.3835 103.644 92.3835C107.402 92.3835 109.275 94.0073 109.275 97.2733V100.232H106.824V97.1288C106.824 96.2892 106.553 95.6372 105.987 95.1821C105.458 94.6992 104.643 94.4686 103.549 94.4686C102.454 94.4686 101.614 94.7023 101.061 95.1821C100.528 95.6372 100.261 96.2769 100.261 97.1042C100.249 97.2641 100.249 97.424 100.261 97.5839C100.273 97.7469 100.286 97.9038 100.298 98.0668C100.322 98.239 100.35 98.3989 100.384 98.5465C100.421 98.7065 100.458 98.8664 100.507 99.0263C100.667 99.4968 101.024 99.9858 101.593 100.478L107.851 106.503C107.999 106.662 108.146 106.822 108.269 106.995C108.405 107.167 108.528 107.339 108.651 107.524C108.761 107.708 108.875 107.893 108.97 108.077C109.069 108.274 109.167 108.471 109.253 108.668C109.499 109.347 109.622 110.208 109.622 111.266M93.246 113.533V115.64H82.9219V92.8847H92.9015V94.9914H85.373V103.049H91.5084V105.131H85.373V113.533H93.246ZM74.3569 102.68V97.7869C74.3569 96.9012 74.0863 96.2215 73.5573 95.7295C73.0161 95.2374 72.2411 94.9914 71.2416 94.9914H68.4092V105.488H71.2416C73.3236 105.488 74.36 104.553 74.36 102.68M68.4061 107.582V115.64H65.955V92.8847H71.2539C73.0776 92.8847 74.4461 93.3153 75.381 94.1795C76.3313 95.0529 76.8111 96.2492 76.8111 97.79V102.683C76.8111 105.073 75.787 106.589 73.7296 107.241L78.0413 115.643H75.3441L71.2539 107.585H68.4092L68.4061 107.582ZM53.8933 105.131V115.64H51.4422V92.8847H61.0651V94.9914H53.8933V103.049H59.6597V105.131H53.8933Z" fill="white"/>
<path fill-rule="evenodd" clip-rule="evenodd" d="M88.5163 54.8114V66.8116C88.5163 67.1191 88.6394 67.4021 88.8485 67.6266C89.0699 67.8357 89.3652 67.9587 89.6604 67.9587C89.9556 67.9587 90.2632 67.8357 90.4723 67.6266C90.6937 67.4051 90.8167 67.1222 90.8167 66.8116V54.8114C90.8167 54.5039 90.6937 54.2087 90.4723 53.9995C90.2632 53.7781 89.9679 53.6551 89.6604 53.6551C89.3528 53.6551 89.0699 53.7781 88.8485 53.9995C88.6394 54.2087 88.5163 54.5039 88.5163 54.8114ZM69.1106 60.1472C68.9876 60.2333 68.8892 60.3441 68.8031 60.4671C68.7293 60.6024 68.6678 60.7377 68.6432 60.8853C68.6186 61.0329 68.6186 61.1929 68.6555 61.3405C68.6801 61.4881 68.7416 61.6234 68.8277 61.7464L75.7012 71.5784C75.8734 71.8245 76.1441 71.9967 76.4393 72.0582C76.7468 72.1074 77.0544 72.0459 77.3127 71.8737C77.5588 71.6892 77.731 71.4185 77.7802 71.1233C77.8294 70.8158 77.7679 70.5082 77.5834 70.2591L70.7068 60.4271C70.6207 60.3041 70.5223 60.1934 70.3869 60.1195C70.2639 60.0334 70.1163 59.9842 69.9687 59.9473C69.8211 59.9227 69.6735 59.935 69.5258 59.9596C69.3782 59.9965 69.2429 60.058 69.1076 60.1442M108.608 60.4302L101.747 70.2622C101.562 70.5082 101.501 70.8188 101.55 71.1264C101.599 71.4216 101.771 71.6922 102.017 71.8767C102.276 72.049 102.583 72.1105 102.881 72.0613C103.189 71.9998 103.46 71.8276 103.632 71.5815L110.493 61.7495C110.678 61.5035 110.739 61.1959 110.69 60.8853C110.641 60.5901 110.468 60.3195 110.21 60.1472C109.964 59.975 109.657 59.9012 109.358 59.9504C109.051 60.0119 108.792 60.1841 108.605 60.4302M56.7753 75.0198C56.7138 75.1674 56.6769 75.3027 56.6646 75.4627C56.6646 75.6103 56.6892 75.7579 56.7507 75.9055C56.7999 76.0408 56.886 76.1761 56.9844 76.2869C57.0951 76.3976 57.2181 76.4837 57.3535 76.5452L68.3172 81.4228C68.3541 81.4351 68.391 81.4474 68.4279 81.4597C68.4648 81.472 68.5017 81.4843 68.5386 81.4966C68.5878 81.5089 68.6248 81.5089 68.6617 81.5212H68.7847C69.043 81.5212 69.3013 81.4351 69.5105 81.2628C69.7073 81.1029 69.8549 80.8692 69.9041 80.6109C69.9656 80.3525 69.9287 80.0819 69.8057 79.8482C69.6827 79.6144 69.4859 79.4299 69.2521 79.3192L58.2884 74.4416C58.1407 74.3801 58.0054 74.3432 57.8424 74.3432C57.6948 74.3432 57.5472 74.3678 57.3996 74.417C57.2643 74.4785 57.1413 74.5523 57.0305 74.663C56.9198 74.7615 56.8337 74.8845 56.7722 75.0198M121.042 74.4385L110.078 79.3161C109.795 79.4391 109.574 79.6729 109.46 79.9558C109.349 80.2387 109.361 80.5586 109.484 80.8446C109.607 81.1275 109.841 81.349 110.124 81.4474C110.407 81.5581 110.727 81.5458 111.013 81.4228L121.977 76.5452C122.259 76.4222 122.481 76.1884 122.592 75.9055C122.702 75.6226 122.69 75.3027 122.567 75.0198C122.444 74.7369 122.21 74.5154 121.927 74.417C121.644 74.3063 121.322 74.3186 121.039 74.4416M106.295 88.816C106.283 88.693 106.283 88.5454 106.271 88.3854C106.246 88.1025 106.234 87.8319 106.197 87.5489C106.172 87.2783 106.135 86.9954 106.098 86.7247C106.061 86.4418 106.025 86.1712 105.975 85.9005C105.926 85.6299 105.877 85.347 105.815 85.0732C105.742 84.7042 105.655 84.3475 105.569 83.9784C105.471 83.6217 105.36 83.2649 105.25 82.9051C105.127 82.5484 105.003 82.1916 104.868 81.8472C104.733 81.4904 104.598 81.1429 104.438 80.7984C104.265 80.4171 104.069 80.0358 103.859 79.6513C103.663 79.2823 103.441 78.9132 103.195 78.5657C102.961 78.209 102.703 77.8645 102.442 77.5324C102.171 77.2002 101.888 76.8804 101.593 76.5729C98.8435 73.7158 95.0146 72.2735 90.2078 72.2735C84.9335 72.2735 80.7571 73.8143 77.7771 76.8681C77.4942 77.1757 77.2112 77.4955 76.9375 77.8276C76.6669 78.1598 76.4086 78.4919 76.1717 78.8517C75.9257 79.1962 75.7043 79.5529 75.4952 79.922C75.2737 80.291 75.0892 80.6724 74.9047 81.0568C74.7448 81.3889 74.5971 81.7334 74.4618 82.0686C74.3265 82.413 74.1912 82.7575 74.0805 83.1019C73.9575 83.4587 73.8467 83.8062 73.7483 84.1629C73.6499 84.5197 73.5638 84.8764 73.4777 85.2362C73.4162 85.4946 73.367 85.7652 73.3178 86.0235C73.2686 86.2942 73.2194 86.5525 73.1825 86.8262C73.1456 87.0969 73.1087 87.3552 73.0718 87.6258C73.0471 87.8964 73.0225 88.1671 72.9979 88.4377C72.9856 88.573 72.9856 88.7083 72.9733 88.8191H106.301L106.295 88.816ZM42.8684 90.4675C42.647 90.4675 42.4378 90.3814 42.2779 90.2214C42.1303 90.0738 42.0442 89.8647 42.0442 89.6433C42.0442 89.4218 42.1303 89.225 42.2779 89.0651C42.4378 88.9052 42.647 88.8191 42.8684 88.8191H51.7255V61.9371L43.4342 66.6916C43.0529 66.9131 42.61 66.9623 42.1887 66.8516C41.7705 66.7409 41.4137 66.4702 41.1923 66.0889C40.9709 65.7075 40.9217 65.2647 41.0324 64.8433C41.1431 64.4128 41.4137 64.056 41.7951 63.8438L88.9346 36.762C89.0576 36.6882 89.1929 36.639 89.3283 36.6021C89.4636 36.5652 89.6112 36.5406 89.7465 36.5406C89.8941 36.5406 90.0417 36.5652 90.177 36.6021C90.3124 36.639 90.4477 36.6882 90.5707 36.762L137.141 63.7577C137.523 63.9792 137.809 64.3359 137.932 64.7542C138.042 65.1847 137.993 65.6399 137.772 66.0212C137.55 66.4026 137.181 66.6732 136.748 66.7839C136.329 66.8946 135.874 66.8331 135.493 66.5994L127.768 62.1155L127.546 88.8129H136.403C136.625 88.8129 136.834 88.899 136.981 89.0589C137.141 89.2189 137.227 89.4157 137.227 89.6371C137.227 89.8585 137.141 90.0677 136.981 90.2153C136.834 90.3752 136.625 90.4613 136.403 90.4613H42.8653L42.8684 90.4675Z" fill="white"/>
<path d="M107.009 89.594C106.898 89.594 106.796 89.5694 106.701 89.5325C106.59 89.4956 106.504 89.4341 106.427 89.3603C106.353 89.2742 106.292 89.1881 106.243 89.0897C106.206 88.9912 106.181 88.8805 106.181 88.7698C106.181 84.4212 104.459 80.2325 101.377 77.151C98.2867 74.0695 94.1073 72.3319 89.7464 72.3319C85.3855 72.3319 81.2091 74.0695 78.1275 77.151C75.0368 80.2295 73.3115 84.4212 73.3115 88.7698C73.3115 88.9913 73.2254 89.2004 73.0655 89.3603C72.9178 89.5079 72.7087 89.594 72.4873 89.594C72.2659 89.594 72.0567 89.5079 71.9091 89.3603C71.7492 89.2004 71.6631 88.9913 71.6631 88.7698C71.6631 83.9784 73.5729 79.3807 76.962 75.9947C80.351 72.5933 84.958 70.6958 89.7494 70.6958C94.5409 70.6958 99.1509 72.5933 102.537 75.9947C105.926 79.3837 107.836 83.9784 107.836 88.7698C107.836 88.8805 107.811 88.9912 107.774 89.0897C107.725 89.1881 107.676 89.2742 107.59 89.3603C107.516 89.4341 107.43 89.4956 107.331 89.5325C107.221 89.5694 107.122 89.594 107.012 89.594" fill="white"/>
<path d="M72.4838 89.8278H52.3769C52.1555 89.8278 51.9587 89.7416 51.7988 89.5786C51.6388 89.431 51.5527 89.2219 51.5527 89.0005C51.5527 88.7791 51.6388 88.5699 51.7988 88.4223C51.9587 88.2624 52.1555 88.1763 52.3769 88.1763H72.4838C72.7052 88.1763 72.9144 88.2624 73.062 88.4223C73.2219 88.5699 73.308 88.7791 73.308 89.0005C73.308 89.2219 73.2219 89.431 73.062 89.5786C72.9144 89.7386 72.7052 89.8278 72.4838 89.8278Z" fill="white"/>
<path d="M127.005 89.877H126.992L106.922 89.8278C106.713 89.8278 106.504 89.7416 106.341 89.5786C106.194 89.431 106.107 89.2219 106.107 89.0005C106.107 88.7791 106.194 88.5699 106.341 88.4223C106.501 88.2624 106.713 88.1763 106.932 88.1763L127.002 88.2255C127.223 88.2255 127.42 88.3116 127.58 88.4715C127.727 88.6314 127.813 88.8406 127.813 89.0497C127.813 89.2711 127.727 89.4802 127.58 89.6309C127.42 89.7909 127.211 89.877 127.002 89.877" fill="white"/>
<path d="M52.2548 89.8277H52.2425C52.1441 89.8277 52.0333 89.8031 51.9349 89.7662C51.8365 89.717 51.7504 89.6678 51.6643 89.5817C51.5905 89.5079 51.529 89.4218 51.4921 89.3234C51.4429 89.2126 51.4306 89.1142 51.4306 89.0035L51.4552 60.1871C51.4552 59.9657 51.5536 59.7566 51.7012 59.609C51.8611 59.449 52.0702 59.3629 52.2794 59.3629C52.5008 59.3629 52.7099 59.449 52.8575 59.609C53.0175 59.7566 53.1036 59.9657 53.1036 60.1871L53.0667 89.0035C53.0667 89.1142 53.0544 89.2249 53.0052 89.3234C52.9682 89.4218 52.9067 89.5079 52.8329 89.5817C52.7468 89.6678 52.6607 89.717 52.5623 89.7662C52.4639 89.8031 52.3532 89.8277 52.2548 89.8277Z" fill="white"/>
<path d="M127.065 89.8278C126.955 89.8278 126.856 89.8032 126.746 89.7663C126.647 89.7171 126.561 89.6678 126.484 89.5817C126.413 89.5079 126.349 89.4218 126.3 89.3234C126.263 89.2127 126.238 89.1143 126.238 89.0036V60.1226C126.238 59.9012 126.324 59.692 126.484 59.5444C126.635 59.3845 126.844 59.2984 127.065 59.2984C127.287 59.2984 127.496 59.3845 127.647 59.5444C127.804 59.692 127.893 59.9012 127.893 60.1226V89.0036C127.893 89.1143 127.868 89.2127 127.831 89.3234C127.782 89.4218 127.721 89.5079 127.647 89.5817C127.573 89.6678 127.484 89.7171 127.385 89.7663C127.275 89.8032 127.176 89.8278 127.065 89.8278Z" fill="white"/>
<path d="M136.406 119.693H42.8681C42.6467 119.693 42.4376 119.607 42.2777 119.459C42.13 119.302 42.0439 119.09 42.0439 118.881C42.0439 118.66 42.13 118.451 42.2777 118.291C42.4376 118.143 42.6467 118.057 42.8681 118.057H136.406C136.627 118.057 136.837 118.143 136.984 118.291C137.144 118.451 137.23 118.66 137.23 118.881C137.23 119.103 137.144 119.302 136.984 119.459C136.837 119.61 136.627 119.693 136.406 119.693Z" fill="white"/>
</svg>
