<svg width="24" height="24" viewBox="0 0 24 24" fill="none" xmlns="http://www.w3.org/2000/svg">
<path fill-rule="evenodd" clip-rule="evenodd" d="M1.03125 11.3958C1.03125 7.03479 1.03125 4.85428 2.07044 3.28372C2.5345 2.58239 3.13512 1.98176 3.83645 1.51771C5.40701 0.478516 7.58752 0.478516 11.9485 0.478516C16.3096 0.478516 18.4901 0.478516 20.0606 1.51771C20.762 1.98176 21.3626 2.58239 21.8266 3.28372C22.8658 4.85428 22.8658 7.03479 22.8658 11.3958C22.8658 15.7568 22.8658 17.9373 21.8266 19.5079C21.3626 20.2092 20.762 20.8099 20.0606 21.2739C18.4901 22.3131 16.3096 22.3131 11.9485 22.3131C7.58752 22.3131 5.40701 22.3131 3.83645 21.2739C3.13512 20.8099 2.5345 20.2092 2.07044 19.5079C1.03125 17.9373 1.03125 15.7568 1.03125 11.3958ZM17.6009 11.3962C17.6009 14.5177 15.0704 17.0482 11.9489 17.0482C8.82737 17.0482 6.29687 14.5177 6.29687 11.3962C6.29687 8.27463 8.82737 5.74414 11.9489 5.74414C15.0704 5.74414 17.6009 8.27463 17.6009 11.3962ZM11.9489 15.1359C14.0143 15.1359 15.6887 13.4616 15.6887 11.3962C15.6887 9.33073 14.0143 7.65637 11.9489 7.65637C9.88346 7.65637 8.20911 9.33073 8.20911 11.3962C8.20911 13.4616 9.88346 15.1359 11.9489 15.1359ZM17.8243 6.78892C18.5578 6.78892 19.1523 6.19433 19.1523 5.46086C19.1523 4.7274 18.5578 4.13281 17.8243 4.13281C17.0908 4.13281 16.4962 4.7274 16.4962 5.46086C16.4962 6.19433 17.0908 6.78892 17.8243 6.78892Z" fill="white"/>
</svg>
