<svg width="20" height="20" viewBox="0 0 20 20" fill="none" xmlns="http://www.w3.org/2000/svg">
<path d="M10 0C4.47005 0 0 4.47005 0 10C0 15.53 4.47005 20 10 20C15.53 20 20 15.53 20 10C20 4.47005 15.53 0 10 0ZM15.8295 7.25806L8.59447 14.5161C8.41014 14.7005 8.17972 14.7926 7.94931 14.7926C7.71889 14.7926 7.46544 14.7005 7.30415 14.5161L3.70968 10.9217C3.34101 10.553 3.34101 9.97696 3.70968 9.60829C4.07834 9.23963 4.65438 9.23963 5.02304 9.60829L7.92627 12.5576L14.5161 5.96774C14.8848 5.59908 15.4608 5.59908 15.8295 5.96774C16.1982 6.31336 16.1982 6.8894 15.8295 7.25806Z" fill="white"/>
</svg>
