<svg width="32" height="31" viewBox="0 0 32 31" fill="none" xmlns="http://www.w3.org/2000/svg">
<path d="M22.0765 16.6704L21.4698 17.2555C21.4698 17.2555 20.0258 18.6453 16.0858 14.8504C12.1458 11.0555 13.5898 9.66568 13.5898 9.66568L13.9711 9.29626C14.9138 8.38951 15.0031 6.93251 14.1805 5.86818L12.5005 3.6943C11.4818 2.3768 9.51513 2.20243 8.34846 3.32618L6.25513 5.34118C5.67779 5.89918 5.29113 6.61993 5.33779 7.42076C5.45779 9.47064 6.41513 13.8791 11.7538 19.0225C17.4165 24.4759 22.7298 24.6929 24.9018 24.4966C25.5898 24.4346 26.1871 24.0962 26.6685 23.6312L28.5618 21.8073C29.8418 20.5764 29.4818 18.4645 27.8445 17.603L25.2978 16.2609C24.2231 15.6952 22.9165 15.8618 22.0765 16.6704Z" fill="#34934C"/>
</svg>
