<svg width="34" height="31" viewBox="0 0 34 31" fill="none" xmlns="http://www.w3.org/2000/svg">
<path d="M5.3125 8.4167C5.3125 7.89735 5.55038 7.39927 5.9738 7.03204C6.39722 6.66481 6.9715 6.4585 7.57031 6.4585H25.6328C26.2316 6.4585 26.8059 6.66481 27.2293 7.03204C27.6528 7.39927 27.8906 7.89735 27.8906 8.4167V9.9937L16.6016 15.5002L5.3125 9.9937V8.4167Z" fill="#34934C"/>
<path d="M5.3125 11.6264V22.4233C5.3125 22.9851 5.55038 23.5239 5.9738 23.9212C6.39722 24.3185 6.9715 24.5417 7.57031 24.5417H25.6328C26.2316 24.5417 26.8059 24.3185 27.2293 23.9212C27.6528 23.5239 27.8906 22.9851 27.8906 22.4233V11.6264L16.6016 17.5848L5.3125 11.6264Z" fill="#34934C"/>
</svg>
